<svg xmlns="http://www.w3.org/2000/svg" width="200" height="130" viewBox="0 0 500 303" 
version="1.1"><path d="M 162.198 123.431 C 127.989 182.521, 100 231.122, 100 231.434 C 100 231.745, 106.862 231.985, 115.250 231.966 L 130.500 231.931 178 149.776 C 204.125 104.591, 228.802 61.889, 232.838 54.884 L 240.175 42.146 233.002 29.823 C 229.056 23.045, 225.506 17.161, 225.112 16.748 C 224.718 16.334, 196.406 64.342, 162.198 123.431 M 209.750 259.662 C 210.625 260.015, 211 262.969, 211 269.500 C 211 276.031, 210.625 278.985, 209.750 279.338 C 209.063 279.615, 212.213 279.878, 216.750 279.921 L 225 280 224.996 276.250 L 224.993 272.500 223.011 275.750 C 221.621 278.030, 220.279 279, 218.515 279 C 216.006 279, 216 278.976, 216 269.573 C 216 261.436, 216.239 260.084, 217.750 259.689 C 218.713 259.438, 217.025 259.215, 214 259.195 C 210.975 259.175, 209.063 259.385, 209.750 259.662 M 232.206 260.048 C 229.012 261.329, 226.703 267.281, 227.521 272.123 C 228.198 276.131, 231.834 280.014, 234.885 279.985 C 236.263 279.972, 236.286 279.834, 235.036 279.043 C 232.764 277.606, 232.304 264.712, 234.410 261.497 C 236.160 258.826, 235.815 258.599, 232.206 260.048 M 239.429 260.571 C 241.270 262.413, 241.653 274.912, 239.965 278.066 C 238.521 280.764, 240.261 280.540, 243.694 277.587 C 246.155 275.470, 246.500 274.476, 246.500 269.500 C 246.500 264.524, 246.155 263.530, 243.694 261.413 C 240.433 258.608, 236.735 257.878, 239.429 260.571 M 251.133 261.249 C 251.795 262.486, 253.317 267.098, 254.515 271.499 C 256.254 277.886, 257.104 279.561, 258.726 279.804 C 260.344 280.046, 260.858 279.435, 261.251 276.804 C 261.523 274.987, 261.422 273.275, 261.027 273 C 260.631 272.725, 259.989 271.150, 259.599 269.500 C 257.084 258.866, 257.163 259, 253.426 259 C 250.111 259, 249.992 259.116, 251.133 261.249 M 264.796 259.750 C 264.619 260.163, 264.624 264.887, 264.806 270.250 L 265.137 280 268.069 280 L 271 280 271 269.500 L 271 259 268.059 259 C 266.441 259, 264.973 259.337, 264.796 259.750 M 274.750 259.662 C 275.625 260.015, 276 262.969, 276 269.500 C 276 276.031, 275.625 278.985, 274.750 279.338 C 274.063 279.615, 277.212 279.878, 281.750 279.921 L 290 280 290 277.311 L 290 274.623 287.961 276.811 C 286.840 278.015, 284.815 279, 283.461 279 C 281.211 279, 281 278.614, 281 274.500 C 281 269.885, 282.330 268.730, 284.800 271.200 C 285.733 272.133, 286 271.756, 286 269.500 C 286 267.244, 285.733 266.867, 284.800 267.800 C 282.330 270.270, 281 269.115, 281 264.500 C 281 260.408, 281.219 260, 283.417 260 C 284.879 260, 286.596 261.047, 287.766 262.653 L 289.699 265.306 289.236 262.153 L 288.773 259 281.137 259.079 C 276.936 259.122, 274.063 259.385, 274.750 259.662" stroke="none" fill="#ffffff" fill-rule="evenodd"/><path d="M 213.208 123.398 C 178.993 182.474, 151 231.077, 151 231.405 C 151 231.732, 174.175 232, 202.500 232 L 254 232 254 211.500 L 254 191 237.589 191 L 221.179 191 248.339 144.064 C 263.278 118.249, 275.805 97.436, 276.178 97.814 C 276.945 98.590, 330 190.101, 330 190.647 C 330 190.841, 322.800 191, 314 191 L 298 191 298 211.500 L 298 232 349.595 232 L 401.190 232 398.728 227.750 C 397.373 225.412, 369.599 177.375, 337.007 121 C 304.416 64.625, 277.224 17.935, 276.582 17.243 C 275.674 16.266, 261.609 39.825, 213.208 123.398 M 249.500 269.286 C 249.500 277.762, 249.764 279.572, 251 279.572 C 252.226 279.573, 252.468 278.072, 252.325 271.360 C 252.183 264.714, 250.976 259, 249.715 259 C 249.597 259, 249.500 263.629, 249.500 269.286 M 210.365 269.500 C 210.368 275, 210.536 277.122, 210.738 274.216 C 210.941 271.311, 210.939 266.811, 210.734 264.216 C 210.528 261.622, 210.363 264, 210.365 269.500 M 216.365 269.500 C 216.368 275, 216.536 277.122, 216.738 274.216 C 216.941 271.311, 216.939 266.811, 216.734 264.216 C 216.528 261.622, 216.363 264, 216.365 269.500 M 275.365 269.500 C 275.368 275, 275.536 277.122, 275.738 274.216 C 275.941 271.311, 275.939 266.811, 275.734 264.216 C 275.528 261.622, 275.363 264, 275.365 269.500 M 281.286 264.500 C 281.294 267.250, 281.488 268.256, 281.718 266.736 C 281.947 265.216, 281.941 262.966, 281.704 261.736 C 281.467 260.506, 281.279 261.750, 281.286 264.500 M 285.917 265.500 C 285.529 267.827, 285.799 273.133, 286.333 273.667 C 286.700 274.033, 287 272.233, 287 269.667 C 287 267.100, 286.775 265, 286.500 265 C 286.225 265, 285.962 265.225, 285.917 265.500 M 281.286 274.500 C 281.294 277.250, 281.488 278.256, 281.718 276.736 C 281.947 275.216, 281.941 272.966, 281.704 271.736 C 281.467 270.506, 281.279 271.750, 281.286 274.500" stroke="none" fill="#04b3fb" fill-rule="evenodd"/><path d="M -0 151.502 L -0 303.004 250.250 302.752 L 500.500 302.500 500.753 151.250 L 501.006 0 250.503 0 L 0 0 -0 151.502 M 0.487 152 C 0.487 235.325, 0.605 269.413, 0.750 227.750 C 0.894 186.088, 0.894 117.913, 0.750 76.250 C 0.605 34.588, 0.487 68.675, 0.487 152 M 223.675 16.750 C 223.432 17.163, 196.802 63.175, 164.499 119 C 132.195 174.825, 104.257 223.088, 102.414 226.250 L 99.063 232 114.810 232 L 130.558 232 184.529 138.868 C 214.213 87.645, 238.897 44.916, 239.382 43.915 C 240.054 42.527, 238.510 39.002, 232.882 29.076 C 225.811 16.607, 224.665 15.073, 223.675 16.750 M 213.208 123.398 C 178.993 182.474, 151 231.077, 151 231.405 C 151 231.732, 174.175 232, 202.500 232 L 254 232 254 211.500 L 254 191 237.589 191 L 221.179 191 248.339 144.064 C 263.278 118.249, 275.805 97.436, 276.178 97.814 C 276.945 98.590, 330 190.101, 330 190.647 C 330 190.841, 322.800 191, 314 191 L 298 191 298 211.500 L 298 232 349.595 232 L 401.190 232 398.728 227.750 C 397.373 225.412, 369.599 177.375, 337.007 121 C 304.416 64.625, 277.224 17.935, 276.582 17.243 C 275.674 16.266, 261.609 39.825, 213.208 123.398 M 209.500 269.500 L 209.500 280 217.250 280 L 225 280 225 276.277 L 225 272.555 223.308 275.027 C 221.336 277.909, 219.988 278.963, 218.250 278.985 C 217.337 278.996, 217 276.456, 217 269.573 C 217 261.436, 217.239 260.084, 218.750 259.689 C 219.713 259.438, 218.025 259.180, 215 259.116 L 209.500 259 209.500 269.500 M 230.522 261.250 C 228.979 262.590, 227.695 264.994, 227.344 267.196 C 226.082 275.127, 229.607 280, 236.607 280 C 242.242 280, 243.798 279.291, 245.537 275.928 C 248.324 270.539, 246.558 261.196, 242.455 259.621 C 238.831 258.230, 233.096 259.013, 230.522 261.250 M 249.500 269.455 C 249.500 278.161, 249.762 280, 251 280.002 C 252.221 280.004, 252.464 278.564, 252.306 272.252 L 252.112 264.500 254.286 272.250 C 256.117 278.782, 256.790 280, 258.569 280 C 260.398 280, 260.957 278.831, 262.755 271.250 L 264.831 262.500 264.915 270.667 C 264.974 276.331, 264.617 278.988, 263.750 279.338 C 263.063 279.615, 264.525 279.878, 267 279.921 L 271.500 280 271.500 269.500 L 271.500 259 267.859 259 L 264.217 259 262.925 265.500 C 262.214 269.075, 261.344 272, 260.990 272 C 260.637 272, 259.700 269.188, 258.909 265.750 L 257.470 259.500 253.485 259.205 L 249.500 258.909 249.500 269.455 M 274.500 269.462 L 274.500 280 282.142 280 C 289.550 280, 289.803 279.920, 290.440 277.382 C 291.372 273.670, 290.373 273.256, 287.941 276.347 C 286.794 277.806, 284.988 279, 283.927 279 C 282.310 279, 282 278.277, 282 274.500 C 282 269.514, 282.963 268.863, 285.326 272.250 C 286.842 274.424, 286.895 274.332, 286.895 269.500 C 286.895 264.668, 286.842 264.576, 285.326 266.750 C 282.963 270.137, 282 269.486, 282 264.500 C 282 259.113, 283.764 258.563, 287.638 262.743 L 290.180 265.486 289.840 262.493 L 289.500 259.500 282 259.212 L 274.500 258.925 274.500 269.462 M 234.686 260.750 C 233.678 262.502, 233.148 270.807, 233.808 274.500 C 234.406 277.839, 234.953 278.550, 237.126 278.803 C 239.343 279.062, 239.823 278.636, 240.364 275.928 C 241.160 271.949, 241.163 265.210, 240.370 262.250 C 239.964 260.735, 239.007 260, 237.442 260 C 236.164 260, 234.924 260.337, 234.686 260.750" stroke="none" 
fill="#000000" fill-rule="evenodd"/></svg>