<?xml version="1.0" standalone="no"?>
<!DOCTYPE svg PUBLIC "-//W3C//DTD SVG 20010904//EN"
 "http://www.w3.org/TR/2001/REC-SVG-20010904/DTD/svg10.dtd">
<svg version="1.0" xmlns="http://www.w3.org/2000/svg"
 width="278.000000pt" height="225.000000pt" viewBox="0 0 278.000000 225.000000"
 preserveAspectRatio="xMidYMid meet">

<g transform="translate(0.000000,225.000000) scale(0.100000,-0.100000)"
fill="#000000" stroke="none">
<path d="M1330 110 c0 -76 1 -80 23 -80 21 0 22 4 22 80 0 76 -1 80 -22 80
-22 0 -23 -4 -23 -80z"/>
<path d="M1480 170 c-29 -29 -28 -103 2 -124 26 -19 47 -21 30 -4 -7 7 -12 37
-12 68 0 31 5 61 12 68 9 9 9 12 0 12 -7 0 -21 -9 -32 -20z"/>
<path d="M1555 111 c0 -73 1 -78 18 -69 24 12 40 56 32 88 -6 24 -32 60 -44
60 -3 0 -6 -36 -6 -79z"/>
<path d="M1637 178 c6 -7 18 -43 28 -80 18 -67 38 -87 48 -49 2 11 -2 41 -10
68 -8 26 -17 54 -19 61 -2 6 -15 12 -30 12 -20 0 -24 -3 -17 -12z"/>
<path d="M1745 110 c0 -76 1 -80 23 -80 21 0 22 4 22 80 0 76 -1 80 -22 80
-22 0 -23 -4 -23 -80z"/>
<path d="M1825 110 c0 -76 1 -80 23 -80 21 0 22 4 22 80 0 76 -1 80 -22 80
-22 0 -23 -4 -23 -80z"/>
<path d="M1891 187 c2 -1 12 -9 22 -16 14 -12 17 -11 17 3 0 10 -8 16 -22 16
-12 0 -19 -1 -17 -3z"/>
<path d="M1892 121 c-10 -6 -10 -10 3 -21 13 -11 15 -9 15 9 0 24 0 24 -18 12z"/>
<path d="M1413 54 l-22 -24 24 0 c20 0 25 5 25 25 0 29 1 29 -27 -1z"/>
<path d="M1911 50 l-23 -20 26 0 c19 0 26 5 26 20 0 24 1 24 -29 0z"/>
</g>
</svg>
