<svg xmlns="http://www.w3.org/2000/svg" width="300" height="100" viewBox="0 0 316 233" version="1.1"><path d="M 121.142 5.720 C 117.730 6.367, 108 16.106, 108 18.874 C 108 20.736, 108.381 21.014, 110.163 20.448 C 116.013 18.592, 118.975 16.751, 122.813 12.587 C 128.843 6.046, 128.427 4.337, 121.142 5.720 M 172 6.261 C 172 9.231, 180.813 17.748, 185.560 19.366 C 189.526 20.717, 190.167 20.727, 190.659 19.446 C 191.345 17.658, 187.154 11.982, 182.564 8.481 C 178.421 5.321, 172 3.971, 172 6.261 M 194.512 9.172 C 194.905 11.552, 195.680 14.063, 196.236 14.750 C 196.791 15.437, 196.976 16, 196.648 16 C 195.810 16, 201.785 26.059, 204.140 28.611 L 206.088 30.722 200.794 28.894 C 197.882 27.888, 193.864 27.051, 191.865 27.033 C 187.980 26.998, 178 29.847, 178 30.991 C 178 33.555, 193.812 36.008, 201.291 34.605 C 205.573 33.802, 209 30.940, 209 28.168 C 209 21.518, 202.076 9.125, 196.852 6.423 L 193.798 4.844 194.512 9.172 M 98.521 9.409 C 92.261 16.047, 88.226 28.369, 91.305 31.448 C 93.887 34.030, 97.776 35, 105.545 35 C 112.556 35, 121 32.830, 121 31.028 C 121 30.613, 118.479 29.481, 115.397 28.511 C 109.090 26.528, 100.900 26.966, 95.892 29.556 L 92.957 31.074 96.617 26.287 C 100.803 20.812, 103.420 15.164, 104.279 9.750 C 105.058 4.841, 102.947 4.716, 98.521 9.409 M 78.212 20.250 C 76.809 21.946, 74.304 28.766, 73.606 32.785 C 72.847 37.158, 74.785 46, 76.502 46 C 77.801 46, 80.166 39.957, 81.532 33.146 C 82.312 29.257, 81.238 19, 80.050 19 C 79.607 19, 78.780 19.563, 78.212 20.250 M 218.551 19.917 C 215.312 25.158, 218.820 46, 222.940 46 C 223.432 46, 224.289 43.862, 224.844 41.250 C 225.976 35.924, 225.010 28.739, 222.357 22.750 C 220.696 18.999, 219.616 18.195, 218.551 19.917 M 58.020 42.362 C 55.110 48.756, 54.920 59.120, 57.611 64.632 C 60.184 69.902, 63.991 70.264, 72.545 66.053 C 78.879 62.934, 85.435 56.795, 84.715 54.656 C 83.642 51.470, 68.087 57.760, 63.382 63.282 C 61.633 65.334, 60.909 65.776, 61.384 64.502 C 64.415 56.358, 64.552 47.490, 61.746 41 L 60.233 37.500 58.020 42.362 M 237.222 41.264 C 235.546 45.898, 235.679 58.295, 237.449 62.532 C 238.246 64.439, 238.681 66, 238.416 66 C 238.150 66, 236.307 64.373, 234.319 62.386 C 232.331 60.398, 228.408 57.702, 225.602 56.395 C 220.391 53.969, 214 53.201, 214 55.001 C 214 56.944, 222.563 64.325, 227.500 66.638 C 233.454 69.428, 238.111 69.651, 240.246 67.250 C 242.099 65.165, 243.987 58.711, 243.994 54.432 C 244.001 50.685, 241.538 42.118, 239.752 39.675 C 238.551 38.033, 238.343 38.163, 237.222 41.264 M 86.388 41.070 C 80.114 43.484, 76.843 46.620, 79.040 48.117 C 81.760 49.972, 94.014 48.310, 99.905 45.289 C 102.895 43.755, 105.508 41.995, 105.711 41.377 C 106.672 38.467, 93.693 38.261, 86.388 41.070 M 194.582 40.273 C 192.761 41.646, 192.887 41.849, 197.082 44.302 C 204.037 48.370, 216.269 50.381, 219.936 48.061 C 221.904 46.815, 219.956 44.532, 214.567 41.769 C 209.307 39.072, 197.360 38.178, 194.582 40.273 M 43.667 65.667 C 42.344 66.990, 43.031 79.038, 44.668 83.230 C 46.841 88.794, 51.050 94.760, 53.208 95.335 C 55.987 96.076, 62.522 92.218, 67.498 86.899 C 72.250 81.819, 76.582 73.751, 75.499 71.998 C 74.618 70.573, 66.081 75.212, 62.319 79.161 C 60.569 80.997, 58.041 84.443, 56.700 86.818 L 54.263 91.135 53.101 83.318 C 52.271 77.729, 51.032 74.003, 48.758 70.250 C 45.581 65.006, 44.921 64.412, 43.667 65.667 M 251.334 68.257 C 247.961 73.309, 245.980 78.901, 245.317 85.245 L 244.708 91.066 241.932 86.205 C 240.405 83.532, 237.534 79.920, 235.550 78.178 C 230.749 73.963, 224.303 70.700, 223.463 72.060 C 222.168 74.156, 228.109 83.937, 233.709 88.928 C 243.247 97.429, 247.014 97.407, 251.917 88.821 C 255.590 82.390, 257.281 75.057, 256.418 69.303 C 255.648 64.167, 254.257 63.881, 251.334 68.257 M 231 96.678 C 231 101.299, 232.383 103, 236.141 103 C 240.096 103, 240.413 101.566, 237.171 98.334 C 231.196 92.377, 231 92.324, 231 96.678 M 62.327 97.339 C 58.186 101.134, 58.526 103, 63.359 103 C 67.474 103, 69 101.458, 69 97.300 C 69 92.991, 67.059 93.002, 62.327 97.339 M 36 98.393 C 36 101.845, 37.259 103, 41.023 103 C 44.376 103, 44.428 100.771, 41.144 97.837 C 37.017 94.150, 36 94.260, 36 98.393 M 258.206 98.054 C 254.683 101.259, 254.737 103, 258.359 103 C 261.376 103, 263 101.181, 263 97.800 C 263 94.285, 262.310 94.322, 258.206 98.054 M 19.066 110.440 C 17.914 111.854, 8 141.399, 8 143.417 C 8 144.548, 8.962 145, 11.370 145 C 14.516 145, 14.825 144.698, 16.013 140.454 L 17.285 135.909 22.814 136.204 L 28.342 136.500 29.754 140.750 C 31.061 144.682, 31.431 145, 34.700 145 C 37.848 145, 38.178 144.755, 37.725 142.750 C 37.147 140.193, 26.950 110.683, 26.463 110.155 C 25.648 109.274, 19.833 109.498, 19.066 110.440 M 40.337 110.564 C 39.904 111.692, 46.064 137.408, 47.965 142.407 C 48.765 144.513, 49.605 145, 52.433 145 C 55.872 145, 55.940 144.916, 57.873 138.250 C 58.950 134.537, 60.168 129.925, 60.580 128 L 61.328 124.500 63.092 130.500 C 64.062 133.800, 65.356 138.412, 65.966 140.750 C 67.035 144.839, 67.226 145, 71 145 C 74.694 145, 74.979 144.782, 75.891 141.250 C 78.412 131.487, 83.179 113.315, 83.630 111.750 C 84.049 110.298, 83.476 110, 80.264 110 L 76.394 110 74.068 119.750 C 72.789 125.112, 71.507 129.906, 71.219 130.402 C 70.931 130.897, 69.604 127.084, 68.271 121.927 C 65.370 110.701, 64.864 109.693, 62.029 109.484 C 59.423 109.292, 57.385 112.108, 56.590 117 C 55.834 121.660, 53.270 131.064, 52.563 131.770 C 52.253 132.080, 52.003 131.471, 52.007 130.417 C 52.017 127.530, 47.847 110.012, 47.127 109.919 C 43.105 109.397, 40.697 109.626, 40.337 110.564 M 174.848 109.777 C 173.061 110.004, 171.857 110.993, 171.157 112.807 C 168.117 120.691, 160.819 141.706, 160.671 143 C 160.460 144.854, 165.537 145.629, 167.456 144.037 C 168.190 143.427, 169.083 141.370, 169.441 139.464 C 170.086 136.023, 170.126 136, 175.462 136 L 180.833 136 182.244 140.250 C 183.527 144.116, 183.987 144.528, 187.327 144.810 C 189.836 145.022, 191.009 144.706, 191.030 143.810 C 191.084 141.412, 179.578 110.050, 178.530 109.742 C 177.964 109.576, 176.306 109.591, 174.848 109.777 M 198.886 110.633 C 198.362 111.267, 198.071 118.981, 198.225 128.133 L 198.500 144.500 202.250 144.810 C 206.395 145.153, 206.309 145.336, 206.015 136.750 C 205.864 132.370, 206.037 132, 208.228 132 C 210.131 132, 211.290 133.292, 214.052 138.492 C 217.354 144.709, 217.658 144.983, 221.250 144.992 C 223.313 144.996, 225 144.574, 225 144.054 C 225 143.533, 223.425 140.420, 221.500 137.135 C 219.575 133.851, 218 130.818, 218 130.396 C 218 129.974, 219.012 128.551, 220.250 127.234 C 223.662 123.603, 223.373 117.043, 219.630 113.136 C 216.950 110.339, 216.199 110.119, 208.291 109.820 C 202.830 109.614, 199.490 109.902, 198.886 110.633 M 234.414 109.917 C 234.186 110.146, 234 118.133, 234 127.667 L 234 145 241.684 145 C 250.717 145, 256.696 142.637, 260.243 137.664 C 263.392 133.250, 263.505 121.493, 260.438 117.385 C 256.227 111.745, 253.510 110.536, 243.845 110 C 238.886 109.725, 234.642 109.688, 234.414 109.917 M 275.314 110.950 C 271.526 113.260, 270 115.808, 270 119.823 C 270 123.869, 272.714 126.882, 279.103 129.927 C 282.848 131.712, 284.594 133.162, 284.808 134.664 C 285.268 137.888, 281.742 138.576, 276.939 136.200 L 272.969 134.235 270.843 137.221 C 268.547 140.445, 268.593 140.535, 274 143.396 C 280.541 146.858, 286.651 145.802, 290.832 140.486 C 295.356 134.735, 292.350 128.379, 283.046 124.022 C 279.024 122.138, 277.975 121.171, 278.206 119.558 C 278.425 118.025, 279.362 117.418, 281.877 117.177 C 283.735 117, 285.737 117.337, 286.327 117.927 C 288.070 119.670, 289.602 119.169, 290.839 116.453 C 292.496 112.817, 292.388 112.556, 288.466 110.685 C 283.814 108.467, 279.236 108.559, 275.314 110.950 M 301.758 110.976 C 298.351 113.655, 297.869 116.256, 300.099 119.923 C 301.511 122.244, 302.698 123, 304.929 123 C 310.843 123, 313.187 114.865, 308.365 111.073 C 305.127 108.525, 304.878 108.522, 301.758 110.976 M 95.537 111.250 C 95.164 112.414, 93.896 117.032, 90.937 128 L 89.723 132.500 88.367 126.500 C 87.622 123.200, 86.759 119.422, 86.450 118.105 C 85.633 114.618, 84.128 116.675, 82.559 123.421 C 81.391 128.446, 81.443 129.946, 82.988 135.952 C 85.236 144.692, 85.458 145, 89.524 145 C 93.667 145, 94.200 144.120, 96.634 133.250 C 97.650 128.713, 98.711 125.003, 98.991 125.006 C 99.271 125.009, 100.327 128.458, 101.337 132.670 C 104.281 144.940, 104.420 145.169, 108.698 144.810 L 112.399 144.500 116.673 128.500 C 119.024 119.700, 120.959 111.938, 120.973 111.250 C 120.990 110.464, 119.584 110, 117.183 110 L 113.366 110 111.570 117.616 C 110.583 121.805, 109.321 126.867, 108.767 128.866 L 107.759 132.500 105.828 125 C 101.654 108.782, 102.214 110, 98.930 110 C 97.284 110, 95.757 110.563, 95.537 111.250 M 132.675 110.716 C 132.393 111.172, 131.007 115.992, 129.595 121.426 C 128.182 126.860, 126.857 131.476, 126.650 131.684 C 126.442 131.891, 125.735 129.235, 125.079 125.781 C 122.783 113.695, 121.799 113.298, 120.055 123.753 C 119.087 129.551, 119.189 131.484, 120.778 137.500 L 122.627 144.500 126.564 144.500 L 130.500 144.500 133 135.252 C 134.375 130.165, 135.725 126.003, 136 126.003 C 136.275 126.003, 137.625 130.165, 139 135.252 L 141.500 144.500 145.395 144.500 L 149.291 144.500 153.598 128.500 C 155.966 119.700, 157.926 111.910, 157.952 111.190 C 157.985 110.285, 156.864 109.975, 154.327 110.190 C 150.161 110.542, 150.285 110.292, 147.376 124.241 L 145.553 132.982 142.520 121.741 C 139.516 110.606, 139.458 110.497, 136.338 110.194 C 134.605 110.025, 132.957 110.260, 132.675 110.716 M 301.950 113.560 C 300.173 115.701, 301.880 120.405, 304.575 120.794 C 305.695 120.956, 307.444 120.166, 308.464 119.040 C 310.001 117.342, 310.123 116.565, 309.180 114.496 C 307.865 111.610, 303.986 111.107, 301.950 113.560 M 303 116.430 C 303 118.394, 303.450 120, 304 120 C 304.550 120, 305.007 119.438, 305.015 118.750 C 305.027 117.830, 305.258 117.858, 305.890 118.857 C 306.924 120.489, 307.547 119.397, 307.520 116 C 307.505 114.176, 306.891 113.414, 305.250 113.180 C 303.277 112.900, 303 113.301, 303 116.430 M 206 121.057 L 206 125.115 210.250 124.807 C 214.108 124.528, 214.530 124.233, 214.830 121.609 C 215.217 118.222, 213.777 117.037, 209.250 117.015 C 206.115 117.001, 206 117.143, 206 121.057 M 241 127 L 241 137 245.545 137 C 251.816 137, 255 133.843, 255 127.627 C 255 125.172, 254.720 122.435, 254.379 121.545 C 253.488 119.222, 248.682 117, 244.550 117 L 241 117 241 127 M 174.267 122.280 C 173.645 124.601, 172.832 127.287, 172.461 128.250 C 171.895 129.718, 172.367 130, 175.393 130 C 177.377 130, 178.993 129.887, 178.985 129.750 C 178.977 129.613, 178.167 126.926, 177.185 123.780 L 175.399 118.060 174.267 122.280 M 21.697 123.250 C 21.403 124.487, 20.848 126.513, 20.464 127.750 C 19.842 129.758, 20.109 130, 22.951 130 C 25.794 130, 26.060 129.759, 25.434 127.750 C 24.168 123.687, 23.056 121, 22.641 121 C 22.417 121, 21.992 122.013, 21.697 123.250 M 68.315 154.622 C 67.437 156.910, 69.571 167.556, 71.818 172.097 L 73.704 175.910 69.102 171.816 C 60.692 164.336, 42 157.165, 42 161.420 C 42 164.125, 51.072 172.416, 57.210 175.319 C 63.786 178.430, 72.838 179.019, 75.358 176.499 C 78.456 173.401, 79.894 157.874, 77.449 153.917 C 76.429 152.267, 68.998 152.840, 68.315 154.622 M 221.200 154.200 C 219.672 155.728, 219.625 167.571, 221.128 172.101 C 221.748 173.970, 222.959 176.063, 223.819 176.750 C 226.602 178.975, 235.571 178.261, 241.790 175.319 C 247.887 172.435, 257 164.131, 257 161.460 C 257 157.211, 238.152 164.476, 229.716 171.976 L 224.932 176.230 226.916 172.865 C 228.007 171.014, 229.445 166.197, 230.112 162.159 C 231.132 155.978, 231.100 154.677, 229.912 153.924 C 227.871 152.632, 222.601 152.799, 221.200 154.200 M 82.362 168.500 C 80.627 173.022, 84.665 185.469, 90.050 192.197 L 93.008 195.893 87.494 193.369 C 79.022 189.490, 61.998 188.756, 62.001 192.269 C 62.003 194.171, 71.221 198.902, 77.165 200.050 C 84.243 201.418, 91.553 200.384, 94.152 197.649 C 98.223 193.361, 95.171 179.860, 88.239 171.500 C 84.833 167.392, 83.122 166.519, 82.362 168.500 M 211.122 171.599 C 205.917 177.512, 202.810 185.674, 203.203 192.404 C 203.467 196.917, 203.835 197.650, 206.500 198.980 C 208.382 199.919, 212.134 200.444, 216.571 200.389 C 222.437 200.317, 224.779 199.742, 230.321 197.014 C 233.994 195.205, 237 193.121, 237 192.382 C 237 188.749, 220.134 189.419, 211.447 193.396 L 205.874 195.947 208.958 192.053 C 210.654 189.911, 212.939 186.132, 214.035 183.655 C 216.204 178.750, 217.509 168.433, 216.072 167.545 C 215.580 167.241, 213.352 169.065, 211.122 171.599 M 102 187.318 C 102 191.997, 105.487 199.372, 110.071 204.388 L 115.099 209.889 111.806 208.944 C 106.384 207.389, 97.778 207.868, 91.194 210.092 C 87.762 211.251, 85 212.776, 85 213.511 C 85 215.894, 94.631 218.324, 101.522 217.680 C 108.659 217.014, 117.327 213.294, 116.537 211.236 C 116.254 210.499, 116.468 210.171, 117.011 210.507 C 118.832 211.632, 118.044 204.007, 115.907 199.818 C 114.756 197.562, 111.770 193.530, 109.270 190.858 C 104.804 186.083, 102 184.718, 102 187.318 M 189.580 191.018 C 186.998 193.778, 184.022 197.941, 182.965 200.268 C 180.937 204.737, 180.286 211.559, 181.989 210.507 C 182.533 210.170, 182.735 210.527, 182.437 211.303 C 181.711 213.196, 190.645 217.005, 197.461 217.708 C 203.446 218.326, 214 215.720, 214 213.624 C 214 210.073, 195.551 206.649, 187.860 208.773 L 184.223 209.777 188.212 205.788 C 192.462 201.538, 195.407 195.861, 196.532 189.750 C 197.512 184.428, 195.380 184.817, 189.580 191.018 M 121.009 195.750 C 121.015 196.162, 122.349 198.820, 123.976 201.655 C 127.158 207.205, 133.548 213.038, 139.069 215.433 L 142.500 216.922 137.932 216.961 C 131.566 217.015, 124.055 219.439, 118.410 223.259 C 110.814 228.401, 111.275 229.344, 121.123 228.809 C 131.007 228.271, 137.676 225.683, 142.581 220.483 L 145.891 216.974 143.300 211.980 C 141.875 209.234, 138.723 205.156, 136.295 202.918 C 130.632 197.698, 120.977 193.170, 121.009 195.750 M 170.279 197.548 C 167.467 198.949, 163.361 202.055, 161.154 204.449 C 156.808 209.163, 152.329 217, 153.980 217 C 154.541 217, 155 217.652, 155 218.449 C 155 220.493, 160.968 224.800, 166.952 227.074 C 172.921 229.342, 186.004 229.807, 185.993 227.750 C 185.975 224.420, 172.520 218.160, 163.587 217.326 L 157.122 216.722 160.604 214.947 C 166.526 211.928, 170.887 208.089, 174.516 202.700 C 180.082 194.435, 179.048 193.178, 170.279 197.548" stroke="none" fill="#ffffff" fill-rule="evenodd"/><path d="" stroke="none" fill="#fffcfc" fill-rule="evenodd"/><path d="" stroke="none" fill="#fcfcfc" fill-rule="evenodd"/></svg>