
<svg version="1.0" xmlns="http://www.w3.org/2000/svg"
 width="3000.000000pt" height="1250.000000pt" viewBox="0 0 3000.000000 1250.000000"
 preserveAspectRatio="xMidYMid meet">

<g transform="translate(0.000000,1250.000000) scale(0.100000,-0.100000)"
fill="#000000" stroke="none">
<path d="M4435 12419 c-1108 -60 -2110 -613 -2761 -1525 -338 -474 -553 -1043
-626 -1659 -17 -144 -17 -606 0 -750 54 -453 167 -829 367 -1225 509 -1004
1478 -1717 2595 -1910 381 -66 859 -68 1240 -4 116 19 361 77 450 105 136 45
372 145 544 232 849 430 1400 1141 1610 2079 89 397 113 878 66 1306 l-13 112
-1638 0 -1639 0 0 -475 0 -475 33 -1 c17 -1 538 -5 1157 -8 l1125 -6 -3 -45
c-19 -299 -147 -671 -317 -925 -270 -403 -715 -714 -1239 -865 -476 -138 -918
-145 -1392 -25 -181 46 -300 92 -499 190 -798 394 -1333 1164 -1426 2053 -17
165 -7 524 20 678 143 837 655 1528 1412 1903 664 330 1412 360 2109 84 230
-90 490 -244 685 -405 l89 -74 210 215 c116 119 271 278 345 353 l135 137 -20
22 c-31 35 -241 201 -345 272 -396 273 -859 471 -1327 567 -194 39 -345 58
-560 70 -192 10 -183 10 -387 -1z"/>
<path d="M23350 8825 l0 -3365 495 0 495 0 0 3365 0 3365 -495 0 -495 0 0
-3365z"/>
<path d="M10385 9904 c-322 -34 -577 -105 -840 -234 -457 -225 -824 -593
-1050 -1055 -219 -445 -288 -947 -199 -1434 162 -880 833 -1598 1699 -1816
209 -52 343 -69 570 -69 228 0 362 16 571 69 918 234 1598 1001 1719 1940 29
227 17 553 -30 776 -160 759 -701 1392 -1432 1675 -250 96 -494 143 -778 149
-104 1 -208 1 -230 -1z m433 -944 c353 -72 675 -309 862 -634 291 -507 255
-1147 -89 -1604 -202 -267 -499 -453 -810 -507 -107 -19 -315 -19 -423 0 -373
65 -708 311 -912 669 -196 343 -234 801 -99 1191 174 504 603 853 1118 909 77
8 255 -4 353 -24z"/>
<path d="M20257 9900 c-424 -45 -854 -257 -1244 -616 -217 -200 -462 -553
-584 -844 -174 -417 -218 -819 -133 -1239 84 -416 318 -860 641 -1213 139
-152 206 -207 389 -320 802 -495 1610 -459 2304 101 41 33 78 61 81 61 12 0
22 -253 15 -392 -12 -264 -61 -471 -156 -663 -147 -299 -393 -496 -724 -580
-205 -52 -506 -63 -661 -25 -111 27 -267 100 -360 169 -176 129 -348 335 -461
551 l-37 69 -31 -13 c-17 -7 -210 -91 -428 -186 l-396 -172 17 -42 c65 -150
230 -406 365 -563 332 -388 763 -618 1291 -688 144 -19 463 -22 615 -5 301 33
593 105 753 186 552 276 922 770 1076 1434 59 254 55 85 58 2563 l3 2267 -467
-2 -468 -3 -7 -135 c-4 -74 -8 -154 -10 -176 l-3 -42 -80 65 c-288 231 -620
388 -930 438 -117 19 -317 26 -428 15z m533 -929 c419 -94 777 -431 928 -876
61 -179 76 -278 76 -500 0 -167 -4 -216 -22 -301 -108 -503 -433 -893 -866
-1040 -283 -97 -602 -72 -878 66 -356 179 -614 534 -710 974 -19 85 -22 133
-22 301 0 170 3 216 23 305 74 343 244 633 484 825 182 146 367 228 596 265
82 13 293 3 391 -19z"/>
<path d="M26770 9869 c-264 -22 -489 -87 -740 -215 -437 -223 -784 -577 -1006
-1027 -558 -1134 -90 -2514 1041 -3067 215 -105 406 -165 660 -207 154 -25
496 -25 650 0 253 42 444 101 660 207 302 147 566 359 780 627 92 116 113 150
99 162 -14 13 -733 491 -738 491 -3 0 -26 -33 -52 -72 -64 -101 -228 -261
-342 -335 -225 -148 -495 -225 -787 -226 -257 -1 -452 57 -652 195 -94 65
-239 216 -307 320 -59 91 -103 175 -95 183 3 2 259 111 569 240 852 357 1518
637 2000 842 239 102 441 188 448 190 19 8 15 26 -40 166 -111 283 -298 614
-452 802 -78 95 -226 245 -311 315 -380 311 -860 453 -1385 409z m435 -888
c178 -36 336 -122 468 -253 65 -65 165 -194 155 -203 -3 -3 -2009 -845 -2053
-861 -17 -7 -18 -2 -11 97 34 515 233 883 578 1068 131 71 319 134 478 160
100 16 288 12 385 -8z"/>
</g>
</svg>
