<svg xmlns="http://www.w3.org/2000/svg" width="300" height="50" viewBox="0 0 536 94" version="1.1"><path d="M 48 1.652 C 42.775 2.332, 38.163 2.914, 37.750 2.945 C 37.337 2.975, 37 4.053, 37 5.339 C 37 6.865, 37.870 8.076, 39.500 8.818 C 41.490 9.725, 42.020 10.727, 42.099 13.729 C 42.594 32.712, 42.688 59.141, 42.269 61.822 C 41.909 64.127, 41.023 65.421, 39.375 66.047 C 37.954 66.588, 37 67.764, 37 68.975 C 37 71.256, 37.638 71.347, 54.249 71.443 C 63.488 71.497, 63.998 71.391, 63.999 69.411 C 63.999 68.181, 63.023 66.876, 61.626 66.239 C 58.559 64.842, 58.089 61.819, 58.428 45.652 C 58.726 31.469, 58.920 31.042, 65.095 31.015 C 71.416 30.988, 72 32.565, 72 49.660 C 72 64.639, 71.996 64.664, 69.500 66 C 68.062 66.770, 67.001 68.222, 67.001 69.419 C 67.003 71.395, 67.522 71.498, 77.251 71.453 C 93.396 71.378, 94 71.289, 94 68.979 C 94 67.793, 92.967 66.486, 91.500 65.818 C 88.733 64.557, 88.838 65.543, 88.877 41.100 C 88.898 28.059, 87.814 24.833, 82.571 22.333 C 78.225 20.260, 69.729 21.239, 63.549 24.525 C 60.650 26.067, 58.832 26.538, 58.412 25.857 C 58.054 25.278, 58.024 21.811, 58.346 18.152 C 58.667 14.493, 58.608 9.006, 58.215 5.957 L 57.500 0.415 48 1.652 M 370 6.441 C 370 7.784, 370.369 9.110, 370.819 9.388 C 371.270 9.667, 371.443 8.568, 371.206 6.947 C 370.681 3.373, 370 3.087, 370 6.441 M 392.232 13 C 392.232 14.925, 392.438 15.713, 392.689 14.750 C 392.941 13.787, 392.941 12.213, 392.689 11.250 C 392.438 10.287, 392.232 11.075, 392.232 13 M 12.683 12.252 L 6.866 13.247 7.542 17.247 C 8.302 21.746, 7.288 22.959, 2.750 22.985 C 0.202 22.999, 0 23.300, 0 27.077 L 0 31.153 3.750 30.828 L 7.500 30.503 8 48.002 C 8.543 67.016, 9.045 68.937, 14.152 71.579 C 16.593 72.841, 18.749 73.028, 24.373 72.466 C 34.360 71.467, 36 70.700, 36 67.025 C 36 64.123, 35.824 64, 31.655 64 C 24.505 64, 24 62.794, 24 45.724 L 24 31.105 29.250 30.802 L 34.500 30.500 34.814 26.121 L 35.128 21.742 29.564 22.203 L 24 22.665 24 16.832 C 24 10.171, 24.252 10.273, 12.683 12.252 M 375.232 14 C 375.232 15.925, 375.438 16.712, 375.689 15.750 C 375.941 14.787, 375.941 13.213, 375.689 12.250 C 375.438 11.287, 375.232 12.075, 375.232 14 M 109.594 22.946 C 100.802 26.493, 97.011 31.373, 94.964 41.779 C 91.700 58.368, 100.473 71.058, 116.338 72.695 C 126.787 73.774, 139 68.863, 139 63.583 C 139 61.408, 138.746 61.315, 134.789 62.039 C 123.034 64.188, 114.133 60.741, 112.047 53.231 C 111.477 51.179, 111.009 49.131, 111.006 48.681 C 111.003 48.231, 113.813 47.929, 117.250 48.010 C 120.688 48.091, 127.438 48.122, 132.250 48.079 L 141 48 140.976 44.250 C 140.914 34.785, 136.984 26.594, 131.025 23.513 C 126.064 20.947, 115.255 20.661, 109.594 22.946 M 247.230 21.627 C 248.786 22.087, 248.991 24.231, 249.260 42.820 L 249.560 63.500 249.530 42.513 C 249.501 22.272, 249.429 21.519, 247.500 21.320 C 245.983 21.164, 245.918 21.238, 247.230 21.627 M 343.343 28.500 C 343.346 32.900, 343.522 34.576, 343.733 32.224 C 343.945 29.872, 343.942 26.272, 343.727 24.224 C 343.512 22.176, 343.339 24.100, 343.343 28.500 M 327 26.500 C 327 29.158, 327.324 31.009, 327.720 30.613 C 328.438 29.895, 328.180 22.875, 327.407 22.083 C 327.183 21.854, 327 23.842, 327 26.500 M 197 26.300 C 197 27.565, 196.438 29.231, 195.750 30.002 C 194.703 31.176, 194.759 31.210, 196.092 30.210 C 196.968 29.554, 197.868 29.201, 198.092 29.425 C 198.316 29.650, 198.500 28.521, 198.500 26.917 C 198.500 25.313, 198.162 24, 197.750 24 C 197.338 24, 197 25.035, 197 26.300 M 115.261 27.529 C 112.937 29.157, 111.016 34.558, 111.003 39.500 L 110.995 42.500 118.117 42.163 L 125.239 41.827 124.578 35.663 C 124.101 31.216, 123.341 29.013, 121.848 27.750 C 119.308 25.603, 118.072 25.561, 115.261 27.529 M 219.286 30.500 C 219.294 33.250, 219.488 34.256, 219.718 32.736 C 219.947 31.216, 219.941 28.966, 219.704 27.736 C 219.467 26.506, 219.279 27.750, 219.286 30.500 M 271.629 27.791 C 271.360 28.226, 272.684 28.402, 274.570 28.182 C 276.457 27.961, 278 27.605, 278 27.391 C 278 26.638, 272.113 27.008, 271.629 27.791 M 443.629 27.791 C 443.360 28.226, 444.684 28.402, 446.570 28.182 C 448.457 27.961, 450 27.605, 450 27.391 C 450 26.638, 444.113 27.008, 443.629 27.791 M 375.232 32 C 375.232 33.925, 375.438 34.712, 375.689 33.750 C 375.941 32.788, 375.941 31.212, 375.689 30.250 C 375.438 29.288, 375.232 30.075, 375.232 32 M 310.997 47.798 L 311.495 65.500 311.772 48.575 C 311.925 39.266, 311.701 31.300, 311.275 30.872 C 310.849 30.445, 310.724 38.061, 310.997 47.798 M 403.997 47.798 L 404.495 65.500 404.772 48.575 C 404.925 39.266, 404.701 31.300, 404.275 30.872 C 403.849 30.445, 403.724 38.061, 403.997 47.798 M 299.409 47.500 C 299.408 56.850, 299.558 60.810, 299.743 56.299 C 299.928 51.789, 299.929 44.139, 299.745 39.299 C 299.562 34.460, 299.410 38.150, 299.409 47.500 M 530.411 48 C 530.411 57.625, 530.561 61.563, 530.745 56.750 C 530.928 51.937, 530.928 44.062, 530.745 39.250 C 530.561 34.438, 530.411 38.375, 530.411 48 M 500.409 48.500 C 500.408 57.850, 500.558 61.810, 500.743 57.299 C 500.928 52.789, 500.929 45.139, 500.745 40.299 C 500.562 35.460, 500.410 39.150, 500.409 48.500 M 148.252 38.500 C 148.263 40.700, 148.468 41.482, 148.707 40.238 C 148.946 38.994, 148.937 37.194, 148.687 36.238 C 148.437 35.282, 148.241 36.300, 148.252 38.500 M 335.264 35.718 C 336.784 35.947, 339.034 35.941, 340.264 35.704 C 341.494 35.467, 340.250 35.279, 337.500 35.286 C 334.750 35.294, 333.744 35.488, 335.264 35.718 M 219.286 47.500 C 219.294 50.250, 219.488 51.256, 219.718 49.736 C 219.947 48.216, 219.941 45.966, 219.704 44.736 C 219.467 43.506, 219.279 44.750, 219.286 47.500 M 203.272 48 C 203.272 50.475, 203.467 51.487, 203.706 50.250 C 203.944 49.013, 203.944 46.987, 203.706 45.750 C 203.467 44.513, 203.272 45.525, 203.272 48 M 375.272 48 C 375.272 50.475, 375.467 51.487, 375.706 50.250 C 375.944 49.013, 375.944 46.987, 375.706 45.750 C 375.467 44.513, 375.272 45.525, 375.272 48 M 392.272 48 C 392.272 50.475, 392.467 51.487, 392.706 50.250 C 392.944 49.013, 392.944 46.987, 392.706 45.750 C 392.467 44.513, 392.272 45.525, 392.272 48 M 343.286 49.500 C 343.294 52.250, 343.488 53.256, 343.718 51.736 C 343.947 50.216, 343.941 47.966, 343.704 46.736 C 343.467 45.506, 343.279 46.750, 343.286 49.500 M 454.500 55.500 C 454.500 59.520, 454.837 62.600, 455.250 62.345 C 455.663 62.091, 456 59.010, 456 55.500 C 456 51.990, 455.663 48.909, 455.250 48.655 C 454.837 48.400, 454.500 51.480, 454.500 55.500 M 272.232 57 C 272.232 58.925, 272.438 59.712, 272.689 58.750 C 272.941 57.788, 272.941 56.212, 272.689 55.250 C 272.438 54.288, 272.232 55.075, 272.232 57 M 225.250 62.689 C 226.213 62.941, 227.787 62.941, 228.750 62.689 C 229.713 62.438, 228.925 62.232, 227 62.232 C 225.075 62.232, 224.287 62.438, 225.250 62.689 M 253.737 67.101 C 254.059 68.334, 253.710 69.570, 252.893 70.087 C 251.780 70.792, 251.851 70.972, 253.250 70.985 C 255.120 71.001, 255.802 66.614, 254.093 65.558 C 253.595 65.249, 253.434 65.944, 253.737 67.101 M 396.723 67.332 C 397.018 68.877, 396.688 69.981, 395.849 70.254 C 394.884 70.568, 394.924 70.662, 395.989 70.585 C 397.757 70.457, 398.598 67.198, 397.218 65.818 C 396.592 65.192, 396.417 65.728, 396.723 67.332 M 306.667 66.667 C 306.300 67.033, 306 68.383, 306 69.667 L 306 72 320.750 71.780 L 335.500 71.559 321.139 71.252 L 306.778 70.944 307.250 68.472 C 307.757 65.820, 307.698 65.636, 306.667 66.667 M 425.735 68.395 L 426.222 70.942 412.361 71.267 L 398.500 71.591 412.488 71.546 C 425.299 71.504, 426.505 71.344, 426.831 69.644 C 427.027 68.623, 426.751 67.351, 426.218 66.818 C 425.592 66.192, 425.421 66.751, 425.735 68.395 M 478.667 66.667 C 477.213 68.120, 478.003 72, 479.750 71.985 C 481.149 71.972, 481.220 71.792, 480.107 71.087 C 479.290 70.570, 478.941 69.334, 479.263 68.102 C 479.847 65.868, 479.735 65.598, 478.667 66.667 M 504.881 69.219 C 505.342 71.996, 505.482 72.136, 505.797 70.135 C 506.002 68.834, 505.757 67.357, 505.253 66.853 C 504.698 66.298, 504.552 67.231, 504.881 69.219 M 508.667 66.667 C 508.300 67.033, 508 68.383, 508 69.667 L 508 72 522.250 71.781 L 536.500 71.561 522.750 71.252 C 510.046 70.967, 509 70.800, 509 69.055 C 509 68.016, 509.563 66.940, 510.250 66.662 C 510.948 66.381, 511.021 66.123, 510.417 66.079 C 509.821 66.036, 509.033 66.300, 508.667 66.667 M 197.300 75 C 197.300 78.025, 197.487 79.263, 197.716 77.750 C 197.945 76.237, 197.945 73.763, 197.716 72.250 C 197.487 70.737, 197.300 71.975, 197.300 75 M 491.264 71.718 C 492.784 71.947, 495.034 71.941, 496.264 71.704 C 497.494 71.467, 496.250 71.279, 493.500 71.286 C 490.750 71.294, 489.744 71.488, 491.264 71.718 M 440.250 72.716 C 441.762 72.945, 444.238 72.945, 445.750 72.716 C 447.262 72.487, 446.025 72.300, 443 72.300 C 439.975 72.300, 438.738 72.487, 440.250 72.716" stroke="none" fill="#b2c9d9" fill-rule="evenodd"/><path d="M 407.077 2.589 C 399.413 9.038, 406.770 20.823, 416.058 16.976 C 419.700 15.468, 421 13.278, 421 8.655 C 421 6, 420.273 4.566, 417.923 2.589 C 414.029 -0.688, 410.971 -0.688, 407.077 2.589 M 380.250 2.801 C 371.647 4.237, 371 4.509, 371 6.694 C 371 8.229, 371.866 9.438, 373.500 10.182 C 375.753 11.208, 376 11.901, 376 17.180 L 376 23.038 373.250 22.284 C 368.702 21.037, 360.611 21.635, 356.945 23.490 C 348.078 27.978, 344.797 33.942, 344.200 46.658 C 343.814 54.873, 344.032 56.390, 346.317 61.382 C 349.054 67.360, 352.543 70.216, 359.404 72.092 C 363.882 73.317, 371.337 71.900, 374.250 69.270 C 375.871 67.807, 376 67.872, 376 70.154 C 376 72.616, 376.006 72.617, 383.250 71.858 C 395.411 70.584, 397 70.130, 397 67.933 C 397 66.796, 395.939 65.474, 394.500 64.818 L 392 63.679 392 32.339 C 392 7.866, 391.726 1.028, 390.750 1.129 C 390.063 1.200, 385.337 1.952, 380.250 2.801 M 161 22.598 C 158.262 23.512, 155.032 25.697, 152.750 28.179 C 149.342 31.885, 149.001 32.770, 149.007 37.879 C 149.014 43.809, 150.839 47.798, 154.823 50.588 C 156.915 52.054, 156.899 52.101, 152.967 56.033 C 147.601 61.399, 147.289 65.820, 151.967 70.163 L 154.836 72.825 151.898 74.042 C 148.551 75.429, 144 80.404, 144 82.677 C 144 85.212, 150.366 90.753, 154.560 91.869 C 172.007 96.510, 190.991 92.534, 195.386 83.316 C 197.509 78.865, 197.494 69.683, 195.358 66.424 C 192.557 62.148, 190.216 61.525, 175 61 L 160.500 60.500 160.500 57.500 L 160.500 54.500 169.500 54.484 C 177.216 54.470, 179.129 54.113, 182.911 51.984 C 189.143 48.475, 191.500 44.915, 191.500 39.010 C 191.500 35.493, 190.856 33.296, 189.146 30.983 C 187.075 28.182, 187.015 27.866, 188.646 28.352 C 196.097 30.574, 196 30.610, 196 25.597 L 196 20.976 191.750 21.649 C 189.412 22.019, 186.375 22.620, 185 22.985 C 183.625 23.350, 180.516 23.053, 178.091 22.324 C 172.416 20.620, 166.649 20.712, 161 22.598 M 208.500 22.877 C 199.575 24.326, 198.467 24.735, 198.189 26.686 C 197.968 28.235, 198.684 29.294, 200.643 30.321 L 203.408 31.769 203.499 47.135 C 203.598 63.757, 204.497 67.314, 209.415 70.536 C 214.933 74.152, 224.263 73.174, 229.955 68.385 L 233 65.822 233 69.217 L 233 72.611 241.250 71.795 C 245.787 71.346, 250.512 70.750, 251.750 70.470 C 254.848 69.770, 254.693 66.273, 251.500 64.818 L 249 63.679 249 42.839 L 249 22 246.250 22 C 244.738 22, 239.973 22.675, 235.662 23.500 C 231.351 24.325, 227.639 25, 227.412 25 C 227.185 25, 227 25.845, 227 26.879 C 227 28.023, 228.172 29.243, 230 30 L 233 31.243 233 46.576 L 233 61.909 229.308 62.602 C 226.820 63.069, 224.782 62.827, 223.058 61.860 C 219.789 60.027, 219.129 55.191, 219.454 35.484 C 219.585 27.518, 219.424 21.057, 219.096 21.127 C 218.768 21.196, 214 21.984, 208.500 22.877 M 266 22.818 L 259.500 24.500 259.500 31 L 259.500 37.500 263.500 37.792 C 267.482 38.083, 267.509 38.060, 269.529 32.792 C 271.336 28.078, 271.908 27.466, 274.762 27.188 C 277.122 26.958, 278.630 27.539, 280.483 29.392 C 282.599 31.508, 283 32.842, 283 37.761 L 283 43.612 273.825 45.371 C 262.925 47.460, 259.552 49.032, 257.517 52.967 C 254.564 58.678, 256.485 67.306, 261.432 70.547 C 266.969 74.175, 280.391 72.222, 283.286 67.367 C 283.874 66.381, 284.781 66.843, 286.886 69.198 C 289.298 71.898, 290.399 72.355, 294.600 72.400 C 304.722 72.508, 308.212 69.328, 302 65.659 L 299 63.887 299 46.812 L 299 29.736 295.522 26.456 C 289.730 20.993, 278.433 19.601, 266 22.818 M 314.750 22.751 C 306.761 24.130, 306 24.459, 306 26.533 C 306 28.158, 306.854 29.102, 309 29.850 L 312 30.896 312 47.787 L 312 64.679 309.500 65.818 C 308.033 66.486, 307 67.793, 307 68.979 C 307 70.911, 307.617 71, 321 71 C 334.145 71, 335 70.883, 335 69.078 C 335 67.767, 333.886 66.787, 331.500 66 L 328 64.845 328 50.891 C 328 34.917, 327.639 35.518, 337.247 35.507 L 342.994 35.500 342.997 28.250 C 342.999 22.403, 342.703 21, 341.468 21 C 338.215 21, 333.213 23.915, 330.097 27.626 L 326.844 31.500 327.172 26.249 C 327.553 20.156, 328.400 20.394, 314.750 22.751 M 410 22.557 C 405.325 23.304, 400.938 23.934, 400.250 23.958 C 399.563 23.981, 399 25.026, 399 26.281 C 399 27.897, 399.875 28.892, 402 29.694 L 405 30.826 405 47.694 L 405 64.562 402 65.694 C 399.987 66.454, 399 67.513, 399 68.913 C 399 70.926, 399.479 71, 412.500 71 C 425.381 71, 426 70.907, 426 68.979 C 426 67.793, 424.967 66.486, 423.500 65.818 L 421 64.679 421 42.839 C 421 25.982, 420.715 21.023, 419.750 21.099 C 419.063 21.153, 414.675 21.809, 410 22.557 M 438 22.855 L 431.500 24.575 431.500 31.037 L 431.500 37.500 435.607 37.800 L 439.713 38.101 441.613 32.800 C 443.288 28.124, 443.871 27.465, 446.559 27.201 C 448.508 27.010, 450.579 27.668, 452.303 29.024 C 454.717 30.923, 455 31.799, 455 37.379 L 455 43.612 445.825 45.371 C 434.578 47.527, 431.736 48.929, 429.635 53.357 C 426.573 59.810, 428.522 67.667, 433.872 70.434 C 438.326 72.737, 448.658 72.506, 452.750 70.011 C 454.538 68.921, 456 67.573, 456 67.015 C 456 66.457, 456.450 66, 457 66 C 457.550 66, 458 66.665, 458 67.477 C 458 71.219, 467.138 73.591, 474.250 71.695 C 477.775 70.755, 477.955 67.392, 474.563 65.847 C 472.136 64.741, 472.125 64.667, 471.813 47.431 L 471.500 30.126 468.540 27.039 C 462.923 21.182, 450.668 19.502, 438 22.855 M 487.750 22.767 C 479.541 24.058, 478 24.589, 478 26.125 C 478 27.140, 479.330 28.637, 481 29.500 L 484 31.051 484 47.865 L 484 64.679 481.500 65.818 C 479.198 66.867, 477.911 70.788, 479.750 71.146 C 480.163 71.227, 486.012 71.368, 492.750 71.461 C 504.969 71.629, 505 71.624, 505 69.293 C 505 67.772, 504.128 66.560, 502.500 65.818 L 500 64.679 500 48.446 C 500 30.438, 499.777 31, 506.927 31 C 513.441 31, 514 32.475, 514 49.660 C 514 64.639, 513.996 64.664, 511.500 66 C 510.125 66.736, 509 68.162, 509 69.169 C 509 70.853, 510.082 71, 522.500 71 C 535.043 71, 536 70.867, 536 69.121 C 536 67.977, 534.828 66.757, 533 66 L 530 64.757 530 47.444 C 530 37.921, 529.570 28.999, 529.045 27.617 C 528.519 26.235, 526.865 24.303, 525.369 23.322 C 520.292 19.996, 507.104 21.881, 501.787 26.693 C 500.102 28.218, 500 28.101, 500 24.655 C 500 22.335, 499.543 21.043, 498.750 21.117 C 498.063 21.181, 493.113 21.924, 487.750 22.767 M 166.455 28.455 C 164.313 30.596, 164 31.808, 164 37.955 C 164 45.803, 165.865 49, 170.443 49 C 174.352 49, 176 45.544, 176 37.350 C 176 30.758, 175.776 29.969, 173.365 28.073 C 170.016 25.438, 169.439 25.470, 166.455 28.455 M 366.229 28.669 C 363.835 29.632, 361.828 35.234, 361.280 42.480 C 360.537 52.310, 361.557 58.230, 364.552 61.462 C 366.596 63.667, 367.727 64.063, 371.255 63.807 L 375.500 63.500 375.775 46.574 C 375.984 33.703, 375.745 29.455, 374.775 28.840 C 373.383 27.956, 368.255 27.854, 366.229 28.669 M 451.024 49.080 C 447.249 49.905, 444 53.135, 444 56.064 C 444 61.813, 448.765 65.339, 453.574 63.148 C 455.778 62.144, 456 61.451, 456 55.580 C 456 52.026, 455.663 48.939, 455.250 48.719 C 454.837 48.500, 452.936 48.662, 451.024 49.080 M 274.455 51.455 C 270.032 55.877, 272.210 64.017, 277.807 63.985 C 281.841 63.962, 282.939 62.816, 283.104 58.455 C 283.443 49.557, 283.257 49, 279.955 49 C 278.054 49, 275.986 49.923, 274.455 51.455 M 158.667 76.667 C 157.183 78.150, 158.069 83.752, 160.073 85.566 C 163.092 88.298, 174.290 88.735, 178.971 86.303 C 182.671 84.381, 184.306 80.736, 182.808 77.750 C 182.049 76.238, 180.390 76, 170.631 76 C 164.418 76, 159.033 76.300, 158.667 76.667" stroke="none" fill="#06427b" fill-rule="evenodd"/></svg>