
<svg version="1.0" id="Layer_1" xmlns="http://www.w3.org/2000/svg" 
xmlns:xlink="http://www.w3.org/1999/xlink" x="0px" y="0px"
	 viewBox="0 0 280 300" enable-background="new 0 0 280 300" 
     xml:space="preserve">
<g>
</g>
<g>
	<path fill="#E0E1E0" d="M215.92,73.66c-20.15-20.16-46.93-31.27-75.47-31.28c-58.81,0-106.67,47.85-106.7,106.65
		c-0.01,18.8,4.9,37.15,14.24,53.32l-15.14,55.27l56.56-14.83c15.58,8.5,33.13,12.98,50.98,12.98h0.05h0
		c58.8,0,106.67-47.85,106.69-106.66C247.15,120.62,236.06,93.82,215.92,73.66L215.92,73.66z M140.45,237.76h-0.03
		c-15.92-0.01-31.52-4.28-45.14-12.36l-3.24-1.92l-33.56,8.8l8.96-32.71l-2.11-3.35c-8.88-14.12-13.56-30.43-13.56-47.18
		c0.02-48.88,39.8-88.65,88.72-88.65c23.69,0.01,45.95,9.24,62.7,26c16.74,16.76,25.96,39.03,25.95,62.72
		C229.11,197.99,189.33,237.76,140.45,237.76z"/>
	
		<linearGradient id="SVGID_1_" gradientUnits="userSpaceOnUse" x1="69.0711" y1="178.2579" x2="69.0711" y2="278.91" gradientTransform="matrix(2.0408 0 0 -2.0408 -0.9602 615.2776)">
		<stop  offset="0" style="stop-color:#28B04B"/>
		<stop  offset="1" style="stop-color:#71C169"/>
	</linearGradient>
	<path fill="url(#SVGID_1_)" d="M37.76,251.49l14.45-52.74c-8.91-15.44-13.6-32.95-13.59-50.89
		c0.02-56.12,45.7-101.78,101.82-101.78c27.24,0.01,52.8,10.61,72.02,29.85c19.23,19.24,29.81,44.81,29.8,72.01
		c-0.02,56.12-45.7,101.79-101.81,101.79c0,0,0,0,0,0h-0.05c-17.04-0.01-33.78-4.28-48.65-12.39L37.76,251.49L37.76,251.49z"/>
	<path fill-rule="evenodd" clip-rule="evenodd" fill="#FFFFFF" d="M114.08,103.75c-1.97-4.39-4.05-4.48-5.93-4.55
		c-1.54-0.07-3.29-0.06-5.05-0.06c-1.76,0-4.61,0.66-7.03,3.3c-2.42,2.64-9.22,9.01-9.22,21.98c0,12.97,9.44,25.5,10.76,27.26
		c1.32,1.76,18.23,29.21,45.02,39.78c22.26,8.78,26.79,7.03,31.62,6.59s15.59-6.37,17.79-12.53c2.2-6.15,2.2-11.43,1.54-12.53
		c-0.66-1.1-2.42-1.76-5.05-3.07c-2.64-1.32-15.59-7.69-18.01-8.57c-2.42-0.88-4.17-1.32-5.93,1.32c-1.76,2.64-6.8,8.57-8.34,10.33
		c-1.54,1.76-3.07,1.98-5.71,0.66c-2.64-1.32-11.12-4.1-21.19-13.08c-7.83-6.98-13.12-15.61-14.66-18.25
		c-1.54-2.64-0.16-4.06,1.16-5.38c1.18-1.18,2.64-3.08,3.95-4.62c1.32-1.54,1.75-2.64,2.63-4.39c0.88-1.76,0.44-3.3-0.22-4.62
		C121.55,121.99,116.43,108.96,114.08,103.75L114.08,103.75z"/>
	<path fill="#FFFFFF" d="M215.05,73.32c-19.91-19.93-46.39-30.91-74.61-30.92C82.31,42.4,35,89.69,34.97,147.83
		c-0.01,18.58,4.85,36.72,14.08,52.71l-14.96,54.63L90,240.51c15.4,8.4,32.75,12.83,50.4,12.84h0.04h0
		c58.13,0,105.44-47.3,105.47-105.44C245.92,119.74,234.96,93.25,215.05,73.32L215.05,73.32z M140.44,235.54h-0.03
		c-15.73-0.01-31.16-4.23-44.62-12.22l-3.2-1.9l-33.18,8.7l8.86-32.34l-2.09-3.32c-8.78-13.95-13.41-30.08-13.4-46.64
		c0.02-48.32,39.34-87.63,87.7-87.63c23.42,0.01,45.42,9.14,61.98,25.7c16.55,16.56,25.66,38.58,25.65,62
		C228.08,196.22,188.76,235.54,140.44,235.54z"/>
</g>
</svg>
